# xmcd
#
# Track frame offsets: 
#        182
#        17595
#        32020
#        47987
#        67160
#        85307
#        105855
#        122660
#        134540
#        152215
#
# Disc length: 2268 seconds
#
# Revision: 2
# Processed by: cddbd v1.4PL0 Copyright (c) Steve Scherf et al.
# Submitted via: ExactAudioCopy v0.90b4
#
DISCID=8208da0a
DTITLE=Garth Brooks - In Pieces
DYEAR=1993
DGENRE=Country
TTITLE0=Standing Outside The Fire
TTITLE1=The Night I Called The Old Man Out
TTITLE2=American Honky-Tonk Bar Association
TTITLE3=One Night A Day
TTITLE4=Kickin' And Screamin'
TTITLE5=Ain't Going Down (Til The Sun Comes Up)
TTITLE6=The Red Strokes
TTITLE7=Callin' Baton Rouge
TTITLE8=The Night Will Only Know
TTITLE9=The Cowboy Song
EXTD=
EXTT0=
EXTT1=
EXTT2=
EXTT3=
EXTT4=
EXTT5=
EXTT6=
EXTT7=
EXTT8=
EXTT9=
PLAYORDER=
